<svg width="15" height="15" viewBox="0 0 15 15" fill="none" xmlns="http://www.w3.org/2000/svg">
<path d="M7.50451 12.1758C7.50451 12.44 7.35183 12.6801 7.1129 12.7921C7.02052 12.8358 6.92153 12.8569 6.82318 12.8569C6.66744 12.8569 6.51314 12.8034 6.38852 12.7001L2.66456 9.61423H0.681173C0.305037 9.61455 0 9.30935 0 8.93322V6.21933C0 5.84303 0.305037 5.53799 0.681173 5.53799H2.66472L6.38868 2.45216C6.59214 2.28351 6.87429 2.24756 7.11306 2.36042C7.35183 2.47247 7.50468 2.71269 7.50468 2.97678L7.50451 12.1758ZM10.1223 11.1114C10.1057 11.1125 10.0897 11.1131 10.0733 11.1131C9.89338 11.1131 9.7199 11.042 9.59173 10.9137L9.50063 10.8223C9.2617 10.5838 9.23365 10.2061 9.43485 9.93491C9.94497 9.24712 10.2142 8.43181 10.2142 7.57651C10.2142 6.65657 9.90853 5.79369 9.33006 5.08108C9.10983 4.81022 9.13014 4.41684 9.37697 4.17016L9.4679 4.07907C9.60398 3.943 9.78632 3.86883 9.98366 3.8806C10.1758 3.89028 10.3553 3.98072 10.4772 4.1297C11.2796 5.11155 11.7034 6.30365 11.7034 7.57667C11.7034 8.76232 11.3286 9.89089 10.6192 10.8399C10.5007 10.998 10.3195 11.0973 10.1223 11.1114ZM12.9386 13.2165C12.8154 13.3621 12.6373 13.4494 12.4465 13.4575C12.4372 13.4578 12.4277 13.4581 12.418 13.4581C12.2376 13.4581 12.0644 13.3869 11.9363 13.2587L11.8468 13.1692C11.5967 12.9193 11.5798 12.5197 11.8071 12.2491C12.9057 10.9426 13.5109 9.28324 13.5109 7.57651C13.5109 5.80127 12.863 4.09229 11.6868 2.76445C11.4484 2.49488 11.4605 2.08682 11.7142 1.83209L11.8036 1.74261C11.9361 1.60944 12.1083 1.53608 12.3058 1.54237C12.4933 1.54769 12.6706 1.63056 12.7953 1.77082C14.2169 3.37146 15 5.43352 15 7.57651C15.0003 9.63841 14.2682 11.6415 12.9386 13.2165Z" fill="white"/>
</svg>
